<svg xmlns="http://www.w3.org/2000/svg" viewBox="0 0 64 64">
  <defs>
    <linearGradient id="book" x1="0" y1="0" x2="0" y2="1">
      <stop offset="0%" stop-color="#f2a545"/>
      <stop offset="100%" stop-color="#d96634"/>
    </linearGradient>
  </defs>
  <rect x="8" y="12" width="40" height="40" rx="6" fill="url(#book)"/>
  <rect x="14" y="18" width="22" height="4" rx="2" fill="#fffaf4" opacity="0.9"/>
  <rect x="14" y="26" width="26" height="4" rx="2" fill="#fffaf4" opacity="0.9"/>
  <rect x="14" y="34" width="18" height="4" rx="2" fill="#fffaf4" opacity="0.9"/>
  <path d="M44 22c4 0 7 3 7 7 0 6-7 11-7 11s-7-5-7-11c0-4 3-7 7-7z" fill="#b7422b"/>
  <path d="M44 18c2-4 6-6 10-6-2 4-5 7-10 8" fill="#5b8a3c"/>
</svg>
